<svg width="1704" height="2136" viewBox="0 0 1704 2136" fill="none" xmlns="http://www.w3.org/2000/svg">
<path d="M249.107 136.373C189.2 72.2393 144.269 12.3812 150.688 3.83007C157.107 -4.72108 189.2 1.69228 219.153 16.6568C251.247 31.6213 351.806 121.408 443.806 213.333C535.807 307.396 670.598 465.592 743.343 568.206C816.088 670.82 925.204 852.532 985.112 974.386C1047.16 1096.24 1130.6 1290.78 1175.53 1408.36C1218.32 1525.93 1261.11 1654.2 1269.67 1692.68C1282.51 1761.09 1280.37 1761.09 1207.62 1761.09C1166.97 1761.09 1079.25 1776.06 1015.07 1795.3C950.879 1814.54 850.32 1855.15 790.413 1885.08C732.645 1915.01 632.086 1987.7 572.179 2047.56C473.76 2141.62 456.643 2152.31 443.806 2118.1C430.969 2090.31 450.225 2056.11 522.969 1981.28C576.458 1927.84 672.738 1848.74 736.924 1805.98C801.111 1763.23 895.251 1714.06 946.6 1696.96C995.81 1679.86 1036.46 1658.48 1036.46 1647.79C1036.46 1639.24 1002.23 1523.8 959.437 1393.39C916.646 1260.85 839.623 1059.9 786.134 948.732C734.785 837.567 655.621 687.922 614.97 617.375C572.179 546.828 497.295 435.663 448.085 371.53C398.876 307.396 309.015 200.507 249.107 136.373Z" fill="#323232"/>
<path d="M3.05916 392.907C9.47781 339.463 24.4545 277.467 37.2918 253.951C58.6873 213.333 60.8269 215.471 86.5015 275.329C103.618 311.671 139.99 416.423 167.804 510.486C197.758 604.548 238.409 767.02 257.665 873.91C281.2 1000.04 294.038 1164.65 291.898 1354.91C291.898 1568.69 281.2 1679.86 251.247 1778.19C229.851 1853.02 204.177 1910.74 191.339 1906.46C180.642 1902.19 174.223 1872.26 180.642 1835.91C187.06 1799.57 191.339 1613.58 191.339 1419.05C189.2 1113.34 182.781 1042.79 137.851 884.599C110.037 784.123 65.1061 655.855 39.4315 595.997C3.05918 514.761 -5.49903 465.592 3.05916 392.907Z" fill="#323232"/>
<path d="M1049.3 660.131C982.972 578.895 929.484 504.072 929.484 495.521C929.484 484.832 935.902 478.419 946.6 478.419C955.158 476.281 1032.18 546.828 1119.9 632.34C1205.49 717.851 1316.74 846.118 1363.81 916.665C1413.02 987.212 1481.49 1113.34 1520 1194.58C1558.51 1275.81 1609.86 1416.91 1633.4 1504.56C1659.07 1592.21 1684.74 1722.61 1704 1921.43L1537.12 1934.25C1442.98 1940.67 1310.32 1968.46 1239.72 1994.11C1169.11 2017.63 1094.23 2039 1074.97 2039C1053.58 2039 1040.74 2032.59 1045.02 2024.04C1049.3 2013.35 1107.07 1974.87 1173.39 1938.53C1239.72 1900.05 1344.56 1855.15 1517.86 1810.26L1509.3 1726.89C1505.02 1679.86 1483.63 1570.83 1462.23 1483.18C1438.7 1395.53 1363.81 1207.4 1295.35 1066.31C1224.74 925.217 1113.48 743.505 1049.3 660.131Z" fill="#323232"/>
</svg>
