<svg width="30" height="38" viewBox="0 0 30 38" fill="none" xmlns="http://www.w3.org/2000/svg">
<path d="M4.38569 2.40258C3.33098 1.27269 2.53995 0.218129 2.65296 0.0674771C2.76596 -0.0831748 3.33098 0.0298141 3.85834 0.293455C4.42336 0.557096 6.19376 2.13894 7.81349 3.75845C9.43322 5.41562 11.8063 8.20268 13.087 10.0105C14.3677 11.8183 16.2888 15.0197 17.3435 17.1665C18.4359 19.3132 19.905 22.7406 20.696 24.812C21.4493 26.8835 22.2027 29.1433 22.3534 29.8212C22.5794 31.0264 22.5417 31.0264 21.261 31.0264C20.5453 31.0264 19.0009 31.2901 17.8709 31.629C16.7408 31.968 14.9704 32.6836 13.9157 33.2109C12.8987 33.7382 11.1283 35.0187 10.0736 36.0733C8.34084 37.7304 8.0395 37.9188 7.81349 37.3161C7.58748 36.8265 7.92649 36.2239 9.20721 34.9057C10.1489 33.9641 11.844 32.5706 12.974 31.8174C14.1041 31.0641 15.7615 30.1978 16.6655 29.8965C17.5319 29.5952 18.2476 29.2186 18.2476 29.0303C18.2476 28.8796 17.6449 26.8458 16.8915 24.5484C16.1381 22.2133 14.7821 18.673 13.8404 16.7145C12.9363 14.756 11.5426 12.1196 10.8269 10.8767C10.0736 9.63387 8.75519 7.6754 7.88882 6.54551C7.02246 5.41562 5.4404 3.53247 4.38569 2.40258Z" fill="white"/>
<path d="M0.0538585 6.92214C0.166863 5.98056 0.430538 4.88834 0.656546 4.47404C1.03323 3.75845 1.0709 3.79611 1.52291 4.85067C1.82426 5.49094 2.46462 7.33643 2.9543 8.9936C3.48166 10.6508 4.19735 13.5132 4.53636 15.3963C4.95071 17.6184 5.17672 20.5185 5.13905 23.8705C5.13905 27.6368 4.95071 29.5952 4.42336 31.3277C4.04668 32.6459 3.59466 33.6628 3.36865 33.5875C3.18031 33.5122 3.06731 32.9849 3.18031 32.3446C3.29332 31.7044 3.36865 28.4277 3.36865 25.0004C3.33098 19.6146 3.21798 18.3717 2.42695 15.5846C1.93726 13.8145 1.14623 11.5547 0.694217 10.5001C0.0538588 9.06892 -0.096814 8.20268 0.0538585 6.92214Z" fill="white"/>
<path d="M18.4736 11.63C17.3058 10.1988 16.3641 8.88061 16.3641 8.72996C16.3641 8.54164 16.4772 8.42865 16.6655 8.42865C16.8162 8.39099 18.1722 9.63387 19.7166 11.1404C21.2233 12.6469 23.1821 14.9067 24.0108 16.1496C24.8771 17.3924 26.0825 19.6146 26.7605 21.0457C27.4386 22.4769 28.3426 24.9627 28.757 26.5069C29.209 28.0511 29.661 30.3485 30 33.8512L27.0619 34.0771C25.4045 34.1901 23.0691 34.6797 21.826 35.1317C20.583 35.546 19.2646 35.9226 18.9256 35.9226C18.5489 35.9226 18.3229 35.8096 18.3982 35.659C18.4736 35.4707 19.4906 34.7927 20.6583 34.1525C21.826 33.4745 23.6718 32.6836 26.7229 31.8927L26.5722 30.4238C26.4969 29.5952 26.1202 27.6744 25.7435 26.1302C25.3292 24.5861 24.0108 21.2717 22.8054 18.786C21.5623 16.3002 19.6036 13.0989 18.4736 11.63Z" fill="white"/>
</svg>
