<svg width="533" height="177" viewBox="0 0 533 177" fill="none" xmlns="http://www.w3.org/2000/svg">
<path d="M378.403 119.696H383.265V163H378.403V143.739H356.456V163H351.567V119.696H356.456V138.904H378.403V119.696ZM412.331 163.564C400.135 163.564 390.115 153.571 390.115 141.375C390.115 129.099 400.135 119.079 412.358 119.079C424.608 119.079 434.628 129.099 434.628 141.375C434.628 153.571 424.608 163.564 412.331 163.564ZM412.331 158.621C421.895 158.621 429.685 150.858 429.685 141.348C429.685 131.812 421.895 123.995 412.331 123.995C402.822 123.995 395.058 131.812 395.058 141.348C395.058 150.858 402.822 158.621 412.331 158.621ZM466.192 119.696V124.532H453.647V163H448.758V124.532H436.159V119.696H466.192ZM497.568 124.505H477.018V138.205H494.828V143.094H477.018V158.138H497.568V163H472.129V119.696H497.568V124.505ZM510.221 158.138H531.443V163H505.332V119.696H510.221V158.138Z" fill="#848484"/>
<path d="M66.5835 30.3098V104.477L25.609 69.4128V103H7.38722V28.8323L48.3616 65.2759V30.3098H66.5835ZM123.807 103L120.163 93.9383H96.918L93.2736 103H73.9684L108.541 28.8323L143.211 103H123.807ZM102.138 80.9368H114.943L108.541 64.9805L102.138 80.9368ZM177.993 104.28C174.184 104.28 170.54 103.657 167.06 102.409C163.645 101.161 160.625 99.4213 157.998 97.1887C155.371 94.8905 153.303 92.1982 151.793 89.112C150.348 86.0258 149.626 82.7754 149.626 79.3609V30.3098H167.848V76.8985C167.848 78.2118 168.143 79.6564 168.734 81.2323C169.391 82.7426 170.573 84.0559 172.28 85.1722C173.987 86.2228 175.891 86.7481 177.993 86.7481C179.372 86.7481 180.849 86.4526 182.425 85.8617C184.001 85.205 185.347 84.0559 186.463 82.4143C187.58 80.7727 188.138 78.9341 188.138 76.8985V30.3098H206.36V79.3609C206.36 82.7754 205.604 86.0258 204.094 89.112C202.65 92.1982 200.614 94.8905 197.987 97.1887C195.361 99.4213 192.307 101.161 188.827 102.409C185.413 103.657 181.801 104.28 177.993 104.28ZM267.728 30.3098V47.0541H249.9V103H231.679V47.0541H213.851V30.3098H267.728ZM276.232 103V30.3098H294.454V103H276.232ZM327.446 86.2556H353.646V103H309.224V30.3098H327.446V86.2556ZM381.504 86.2556H407.704V103H363.282V30.3098H381.504V86.2556ZM444.721 104.28C440.913 104.28 437.268 103.657 433.788 102.409C430.374 101.161 427.353 99.4213 424.726 97.1887C422.1 94.8905 420.032 92.1982 418.521 89.112C417.077 86.0258 416.354 82.7754 416.354 79.3609V30.3098H434.576V76.8985C434.576 78.2118 434.872 79.6564 435.463 81.2323C436.119 82.7426 437.301 84.0559 439.008 85.1722C440.716 86.2228 442.62 86.7481 444.721 86.7481C446.1 86.7481 447.578 86.4526 449.154 85.8617C450.729 85.205 452.076 84.0559 453.192 82.4143C454.308 80.7727 454.866 78.9341 454.866 76.8985V30.3098H473.088V79.3609C473.088 82.7754 472.333 86.0258 470.823 89.112C469.378 92.1982 467.343 94.8905 464.716 97.1887C462.089 99.4213 459.036 101.161 455.556 102.409C452.141 103.657 448.53 104.28 444.721 104.28ZM503.923 104.28C495.846 104.28 488.163 101.129 480.875 94.8248L489.838 82.4143C494.303 85.9602 498.538 87.7331 502.544 87.7331C504.908 87.7331 506.812 87.1093 508.257 85.8617C509.767 84.5484 510.522 82.9724 510.522 81.1338C510.522 80.2145 510.259 79.2624 509.734 78.2774C509.209 77.2925 508.257 76.3075 506.878 75.3226C505.499 74.3376 502.971 72.893 499.294 70.9887C495.682 69.0188 492.891 67.1474 490.921 65.3744C488.951 63.5358 487.441 61.5003 486.391 59.2677C485.34 57.0351 484.815 54.4085 484.815 51.388C484.815 48.4331 485.406 45.6095 486.588 42.9173C487.835 40.1594 489.575 37.7627 491.808 35.7271C494.04 33.6258 496.667 31.9842 499.688 30.8023C502.774 29.6203 506.024 29.0293 509.439 29.0293C512.919 29.0293 516.465 29.686 520.076 30.9993C523.688 32.2469 527.037 34.0526 530.123 36.4165L522.046 49.2211C518.172 46.3318 514.626 44.8872 511.409 44.8872C509.11 44.8872 507.305 45.4782 505.991 46.6602C504.678 47.8421 504.021 49.2539 504.021 50.8955C504.021 51.9461 504.481 53.0624 505.4 54.2444C506.32 55.3607 508.716 56.9366 512.591 58.9722C516.465 60.9421 519.157 62.4524 520.667 63.503C522.177 64.5536 523.458 65.6043 524.509 66.6549C525.559 67.6399 526.511 68.7561 527.365 70.0038C528.219 71.2514 528.974 72.7945 529.63 74.6331C530.287 76.4717 530.615 78.7043 530.615 81.3308C530.615 84.2201 530.024 87.0436 528.842 89.8015C527.66 92.5594 525.92 95.0218 523.622 97.1887C521.324 99.3556 518.467 101.096 515.053 102.409C511.704 103.657 507.994 104.28 503.923 104.28Z" fill="#9F9F9F"/>
</svg>
